@startuml
'https://plantuml.com/class-diagram

abstract class TienDienBacThang{
    String tenBac
    int min, max, gia
    + {abstract} TienDienBacThang keTiep(TienDienBacThang k)
    {abstract} int tinhTienDien(int soKW)
}

class BacCaoNhat

class BacThongThuong

TienDienBacThang <|-- BacCaoNhat
TienDienBacThang <|-- BacThongThuong
TienDienBacThang <-- BacThongThuong:keTiep

@enduml