@startuml
'https://plantuml.com/class-diagram

class Builder{
    + Builder buildHeader(String maHD, String ngayBan, String tenKH)
    + Builder addCTHD(String sp, int sl, int donGia, float chietKhau)
    + HoaDon build()
}
class HoaDon{
    - HoaDon(Builder b)
    + toString()

}
class HoaDonHeader
class CTHD
Builder ..> HoaDon
HoaDon --> HoaDonHeader : header
HoaDon *--> CTHD : cthds
Builder --> HoaDonHeader : header
Builder *--> CTHD : cthds
@enduml