@startuml
'https://plantuml.com/class-diagram
abstract class Nut{
    int giatri
    + {abstract} void duyet()
    + {abstract} void addRight(Nut n)
    + {abstract} void addLeft(Nut n)
    + {abstract} void removeRight()
    + {abstract} void removeLeft()
}
class NutLa
class NutTrong

Nut <|-- NutLa
Nut <|-- NutTrong
NutTrong --> Nut: trai
NutTrong --> Nut: phai

@enduml